<mxfile host="app.diagrams.net" agent="Mozilla/5.0 (Windows NT 10.0; Win64; x64) AppleWebKit/537.36 (KHTML, like Gecko) Chrome/135.0.0.0 Safari/537.36" version="26.2.5">
  <diagram id="C5RBs43oDa-KdzZeNtuy" name="Page-1">
    <mxGraphModel dx="1428" dy="795" grid="1" gridSize="10" guides="1" tooltips="1" connect="1" arrows="1" fold="1" page="1" pageScale="1" pageWidth="827" pageHeight="1169" math="0" shadow="0">
      <root>
        <mxCell id="WIyWlLk6GJQsqaUBKTNV-0" />
        <mxCell id="WIyWlLk6GJQsqaUBKTNV-1" parent="WIyWlLk6GJQsqaUBKTNV-0" />
        <mxCell id="nSnrfxxBWp4Ek2YSxH7z-31" value="" style="edgeStyle=orthogonalEdgeStyle;rounded=0;orthogonalLoop=1;jettySize=auto;html=1;fontFamily=Times New Roman;" parent="WIyWlLk6GJQsqaUBKTNV-1" source="nSnrfxxBWp4Ek2YSxH7z-28" edge="1">
          <mxGeometry relative="1" as="geometry">
            <mxPoint x="120" y="90" as="targetPoint" />
          </mxGeometry>
        </mxCell>
        <mxCell id="nSnrfxxBWp4Ek2YSxH7z-28" value="Clean Transactions" style="rounded=1;whiteSpace=wrap;html=1;fontSize=12;glass=0;strokeWidth=1;shadow=0;fontFamily=Times New Roman;" parent="WIyWlLk6GJQsqaUBKTNV-1" vertex="1">
          <mxGeometry x="60" y="10" width="120" height="40" as="geometry" />
        </mxCell>
        <mxCell id="nSnrfxxBWp4Ek2YSxH7z-44" value="" style="edgeStyle=orthogonalEdgeStyle;rounded=0;orthogonalLoop=1;jettySize=auto;html=1;fontFamily=Times New Roman;" parent="WIyWlLk6GJQsqaUBKTNV-1" source="nSnrfxxBWp4Ek2YSxH7z-42" target="nSnrfxxBWp4Ek2YSxH7z-43" edge="1">
          <mxGeometry relative="1" as="geometry" />
        </mxCell>
        <mxCell id="nSnrfxxBWp4Ek2YSxH7z-42" value="Initialize dictionary ”cleaned“" style="rounded=0;whiteSpace=wrap;html=1;fontFamily=Times New Roman;" parent="WIyWlLk6GJQsqaUBKTNV-1" vertex="1">
          <mxGeometry x="60" y="90" width="120" height="60" as="geometry" />
        </mxCell>
        <mxCell id="nSnrfxxBWp4Ek2YSxH7z-47" value="" style="edgeStyle=orthogonalEdgeStyle;rounded=0;orthogonalLoop=1;jettySize=auto;html=1;fontFamily=Times New Roman;" parent="WIyWlLk6GJQsqaUBKTNV-1" source="nSnrfxxBWp4Ek2YSxH7z-43" target="nSnrfxxBWp4Ek2YSxH7z-46" edge="1">
          <mxGeometry relative="1" as="geometry" />
        </mxCell>
        <mxCell id="nSnrfxxBWp4Ek2YSxH7z-48" value="Yes" style="edgeLabel;html=1;align=center;verticalAlign=middle;resizable=0;points=[];fontFamily=Times New Roman;" parent="nSnrfxxBWp4Ek2YSxH7z-47" vertex="1" connectable="0">
          <mxGeometry x="0.06" y="-1" relative="1" as="geometry">
            <mxPoint x="-19" y="-39" as="offset" />
          </mxGeometry>
        </mxCell>
        <mxCell id="nSnrfxxBWp4Ek2YSxH7z-50" value="" style="edgeStyle=orthogonalEdgeStyle;rounded=0;orthogonalLoop=1;jettySize=auto;html=1;fontFamily=Times New Roman;" parent="WIyWlLk6GJQsqaUBKTNV-1" source="nSnrfxxBWp4Ek2YSxH7z-43" edge="1">
          <mxGeometry relative="1" as="geometry">
            <mxPoint x="120" y="350" as="targetPoint" />
          </mxGeometry>
        </mxCell>
        <mxCell id="nSnrfxxBWp4Ek2YSxH7z-53" value="No" style="edgeLabel;html=1;align=center;verticalAlign=middle;resizable=0;points=[];fontFamily=Times New Roman;" parent="nSnrfxxBWp4Ek2YSxH7z-50" vertex="1" connectable="0">
          <mxGeometry x="-0.21" y="5" relative="1" as="geometry">
            <mxPoint x="5" y="4" as="offset" />
          </mxGeometry>
        </mxCell>
        <mxCell id="nSnrfxxBWp4Ek2YSxH7z-43" value="&lt;div&gt;Check data are&amp;nbsp;&lt;/div&gt;&lt;div&gt;empty&lt;/div&gt;" style="rhombus;whiteSpace=wrap;html=1;fontFamily=Times New Roman;" parent="WIyWlLk6GJQsqaUBKTNV-1" vertex="1">
          <mxGeometry x="60" y="190" width="120" height="120" as="geometry" />
        </mxCell>
        <mxCell id="nSnrfxxBWp4Ek2YSxH7z-85" style="edgeStyle=orthogonalEdgeStyle;rounded=0;orthogonalLoop=1;jettySize=auto;html=1;entryX=1;entryY=0.5;entryDx=0;entryDy=0;fontFamily=Times New Roman;" parent="WIyWlLk6GJQsqaUBKTNV-1" source="nSnrfxxBWp4Ek2YSxH7z-46" target="nSnrfxxBWp4Ek2YSxH7z-78" edge="1">
          <mxGeometry relative="1" as="geometry">
            <mxPoint x="330" y="980" as="targetPoint" />
            <Array as="points">
              <mxPoint x="330" y="980" />
            </Array>
          </mxGeometry>
        </mxCell>
        <mxCell id="nSnrfxxBWp4Ek2YSxH7z-46" value="Skip transaction" style="rounded=0;whiteSpace=wrap;html=1;fontFamily=Times New Roman;" parent="WIyWlLk6GJQsqaUBKTNV-1" vertex="1">
          <mxGeometry x="270" y="740" width="120" height="60" as="geometry" />
        </mxCell>
        <mxCell id="nSnrfxxBWp4Ek2YSxH7z-57" value="" style="edgeStyle=orthogonalEdgeStyle;rounded=0;orthogonalLoop=1;jettySize=auto;html=1;fontFamily=Times New Roman;" parent="WIyWlLk6GJQsqaUBKTNV-1" source="nSnrfxxBWp4Ek2YSxH7z-51" target="nSnrfxxBWp4Ek2YSxH7z-46" edge="1">
          <mxGeometry relative="1" as="geometry" />
        </mxCell>
        <mxCell id="nSnrfxxBWp4Ek2YSxH7z-58" value="Yes" style="edgeLabel;html=1;align=center;verticalAlign=middle;resizable=0;points=[];fontFamily=Times New Roman;" parent="nSnrfxxBWp4Ek2YSxH7z-57" vertex="1" connectable="0">
          <mxGeometry x="0.1" y="-1" relative="1" as="geometry">
            <mxPoint x="-19" y="-284" as="offset" />
          </mxGeometry>
        </mxCell>
        <mxCell id="nSnrfxxBWp4Ek2YSxH7z-60" value="" style="edgeStyle=orthogonalEdgeStyle;rounded=0;orthogonalLoop=1;jettySize=auto;html=1;fontFamily=Times New Roman;" parent="WIyWlLk6GJQsqaUBKTNV-1" source="nSnrfxxBWp4Ek2YSxH7z-51" target="nSnrfxxBWp4Ek2YSxH7z-59" edge="1">
          <mxGeometry relative="1" as="geometry" />
        </mxCell>
        <mxCell id="nSnrfxxBWp4Ek2YSxH7z-61" value="No" style="edgeLabel;html=1;align=center;verticalAlign=middle;resizable=0;points=[];fontFamily=Times New Roman;" parent="nSnrfxxBWp4Ek2YSxH7z-60" vertex="1" connectable="0">
          <mxGeometry x="-0.15" y="-2" relative="1" as="geometry">
            <mxPoint x="12" y="3" as="offset" />
          </mxGeometry>
        </mxCell>
        <mxCell id="nSnrfxxBWp4Ek2YSxH7z-51" value="&lt;div&gt;Check &quot;amount&quot; &amp;lt; 0&lt;/div&gt;" style="rhombus;whiteSpace=wrap;html=1;fontFamily=Times New Roman;" parent="WIyWlLk6GJQsqaUBKTNV-1" vertex="1">
          <mxGeometry x="60" y="350" width="120" height="120" as="geometry" />
        </mxCell>
        <mxCell id="nSnrfxxBWp4Ek2YSxH7z-63" value="" style="edgeStyle=orthogonalEdgeStyle;rounded=0;orthogonalLoop=1;jettySize=auto;html=1;fontFamily=Times New Roman;" parent="WIyWlLk6GJQsqaUBKTNV-1" source="nSnrfxxBWp4Ek2YSxH7z-59" target="nSnrfxxBWp4Ek2YSxH7z-62" edge="1">
          <mxGeometry relative="1" as="geometry" />
        </mxCell>
        <mxCell id="nSnrfxxBWp4Ek2YSxH7z-59" value="Convert &quot;amount&quot; to float and remove $" style="rounded=0;whiteSpace=wrap;html=1;fontFamily=Times New Roman;" parent="WIyWlLk6GJQsqaUBKTNV-1" vertex="1">
          <mxGeometry x="60" y="510" width="120" height="60" as="geometry" />
        </mxCell>
        <mxCell id="nSnrfxxBWp4Ek2YSxH7z-65" value="" style="edgeStyle=orthogonalEdgeStyle;rounded=0;orthogonalLoop=1;jettySize=auto;html=1;fontFamily=Times New Roman;" parent="WIyWlLk6GJQsqaUBKTNV-1" source="nSnrfxxBWp4Ek2YSxH7z-62" target="nSnrfxxBWp4Ek2YSxH7z-64" edge="1">
          <mxGeometry relative="1" as="geometry" />
        </mxCell>
        <mxCell id="nSnrfxxBWp4Ek2YSxH7z-62" value="Create unique key" style="rounded=0;whiteSpace=wrap;html=1;fontFamily=Times New Roman;" parent="WIyWlLk6GJQsqaUBKTNV-1" vertex="1">
          <mxGeometry x="60" y="610" width="120" height="60" as="geometry" />
        </mxCell>
        <mxCell id="nSnrfxxBWp4Ek2YSxH7z-67" value="" style="edgeStyle=orthogonalEdgeStyle;rounded=0;orthogonalLoop=1;jettySize=auto;html=1;fontFamily=Times New Roman;" parent="WIyWlLk6GJQsqaUBKTNV-1" source="nSnrfxxBWp4Ek2YSxH7z-64" target="nSnrfxxBWp4Ek2YSxH7z-46" edge="1">
          <mxGeometry relative="1" as="geometry" />
        </mxCell>
        <mxCell id="nSnrfxxBWp4Ek2YSxH7z-68" value="Yes" style="edgeLabel;html=1;align=center;verticalAlign=middle;resizable=0;points=[];fontFamily=Times New Roman;" parent="nSnrfxxBWp4Ek2YSxH7z-67" vertex="1" connectable="0">
          <mxGeometry x="-0.0667" y="-4" relative="1" as="geometry">
            <mxPoint y="-14" as="offset" />
          </mxGeometry>
        </mxCell>
        <mxCell id="nSnrfxxBWp4Ek2YSxH7z-70" value="" style="edgeStyle=orthogonalEdgeStyle;rounded=0;orthogonalLoop=1;jettySize=auto;html=1;fontFamily=Times New Roman;" parent="WIyWlLk6GJQsqaUBKTNV-1" source="nSnrfxxBWp4Ek2YSxH7z-64" target="nSnrfxxBWp4Ek2YSxH7z-69" edge="1">
          <mxGeometry relative="1" as="geometry" />
        </mxCell>
        <mxCell id="nSnrfxxBWp4Ek2YSxH7z-71" value="No" style="edgeLabel;html=1;align=center;verticalAlign=middle;resizable=0;points=[];fontFamily=Times New Roman;" parent="nSnrfxxBWp4Ek2YSxH7z-70" vertex="1" connectable="0">
          <mxGeometry x="-0.1" relative="1" as="geometry">
            <mxPoint x="10" as="offset" />
          </mxGeometry>
        </mxCell>
        <mxCell id="nSnrfxxBWp4Ek2YSxH7z-64" value="&lt;div&gt;Check data&lt;/div&gt;&lt;div&gt;duplicate&lt;/div&gt;" style="rhombus;whiteSpace=wrap;html=1;fontFamily=Times New Roman;" parent="WIyWlLk6GJQsqaUBKTNV-1" vertex="1">
          <mxGeometry x="60" y="710" width="120" height="120" as="geometry" />
        </mxCell>
        <mxCell id="nSnrfxxBWp4Ek2YSxH7z-69" value="Add data to &quot;cleaned&quot;" style="rounded=0;whiteSpace=wrap;html=1;fontFamily=Times New Roman;" parent="WIyWlLk6GJQsqaUBKTNV-1" vertex="1">
          <mxGeometry x="60" y="870" width="120" height="60" as="geometry" />
        </mxCell>
        <mxCell id="nSnrfxxBWp4Ek2YSxH7z-72" value="Return &quot;cleaned&quot; as list" style="rounded=1;whiteSpace=wrap;html=1;fontSize=12;glass=0;strokeWidth=1;shadow=0;fontFamily=Times New Roman;" parent="WIyWlLk6GJQsqaUBKTNV-1" vertex="1">
          <mxGeometry x="60" y="1030" width="120" height="60" as="geometry" />
        </mxCell>
        <mxCell id="nSnrfxxBWp4Ek2YSxH7z-78" value="" style="ellipse;whiteSpace=wrap;html=1;aspect=fixed;fontFamily=Times New Roman;" parent="WIyWlLk6GJQsqaUBKTNV-1" vertex="1">
          <mxGeometry x="110" y="970" width="20" height="20" as="geometry" />
        </mxCell>
        <mxCell id="nSnrfxxBWp4Ek2YSxH7z-79" value="" style="edgeStyle=orthogonalEdgeStyle;rounded=0;orthogonalLoop=1;jettySize=auto;html=1;fontFamily=Times New Roman;" parent="WIyWlLk6GJQsqaUBKTNV-1" edge="1">
          <mxGeometry relative="1" as="geometry">
            <mxPoint x="119.5" y="930" as="sourcePoint" />
            <mxPoint x="119.5" y="970" as="targetPoint" />
          </mxGeometry>
        </mxCell>
        <mxCell id="nSnrfxxBWp4Ek2YSxH7z-84" value="" style="edgeStyle=orthogonalEdgeStyle;rounded=0;orthogonalLoop=1;jettySize=auto;html=1;fontFamily=Times New Roman;" parent="WIyWlLk6GJQsqaUBKTNV-1" edge="1">
          <mxGeometry relative="1" as="geometry">
            <mxPoint x="119.75" y="990" as="sourcePoint" />
            <mxPoint x="119.75" y="1030" as="targetPoint" />
          </mxGeometry>
        </mxCell>
      </root>
    </mxGraphModel>
  </diagram>
</mxfile>
